<svg version="1.1" id="Layer_1" xmlns="http://www.w3.org/2000/svg" xmlns:xlink="http://www.w3.org/1999/xlink" x="0px" y="0px"
	 width="100%" viewBox="0 0 1080 1080" enable-background="new 0 0 1080 1080" xml:space="preserve">
<path fill="#FFFFFF" opacity="1.000000" stroke="none" 
	d="
M507.000000,1081.000000 
	C338.019440,1081.000000 169.538895,1081.000000 1.029166,1081.000000 
	C1.029166,721.060974 1.029166,361.121979 1.029166,1.091479 
	C360.897430,1.091479 720.794922,1.091479 1080.846191,1.091479 
	C1080.846191,360.999939 1080.846191,720.999939 1080.846191,1081.000000 
	C889.788147,1081.000000 698.644104,1081.000000 507.000000,1081.000000 
M265.477600,697.000061 
	C271.585266,696.638794 277.771423,696.774902 283.786224,695.825256 
	C303.840332,692.659241 322.968628,686.235413 341.762329,678.682007 
	C360.522827,671.142029 379.220856,663.406311 398.219513,656.509277 
	C422.258148,647.782593 447.129700,643.136658 472.840729,644.027161 
	C476.790710,644.164001 480.722504,644.772522 484.672363,644.976746 
	C503.631470,645.957275 521.671631,651.089294 539.054199,658.163757 
	C560.697327,666.972107 581.884277,676.894592 603.382629,686.067688 
	C625.045471,695.310974 647.825134,700.676575 671.245544,701.706726 
	C685.000427,702.311646 698.992615,700.793152 712.683960,698.857361 
	C737.136719,695.399902 759.435730,685.829590 780.142761,672.458618 
	C805.284119,656.224182 827.861267,636.252991 854.381287,621.996094 
	C870.279175,613.449463 886.786133,607.052734 904.972168,607.199402 
	C914.093750,607.273010 923.210815,609.351135 932.304504,610.694885 
	C935.654541,611.189880 938.443542,611.371155 940.191223,607.604858 
	C941.911377,603.898071 939.730713,601.847656 937.299377,600.168762 
	C932.573059,596.905151 927.831421,593.536682 922.705688,591.000793 
	C900.001709,579.768616 876.018494,577.939514 851.411194,582.354492 
	C829.474792,586.290161 808.516052,593.467224 788.152954,602.417297 
	C765.849304,612.220520 743.359314,621.475769 719.121643,625.415039 
	C703.492615,627.955261 687.920959,629.886047 671.895874,628.215881 
	C653.292236,626.276917 635.208069,622.886536 617.750183,616.077209 
	C593.122986,606.471436 571.919678,592.159485 555.077209,571.613281 
	C536.668396,549.156128 529.842224,524.002502 537.026611,495.476562 
	C541.428162,477.999817 550.096863,463.294495 565.834534,453.965240 
	C572.524231,449.999573 580.296875,447.830231 587.640503,445.008728 
	C592.671204,443.075928 594.649231,439.507172 591.842468,435.070892 
	C589.931274,432.050049 586.934387,429.334717 583.818481,427.521545 
	C567.668396,418.123749 550.879639,419.795898 534.287598,425.994904 
	C513.033264,433.935822 495.762970,448.143127 479.420227,463.276215 
	C457.641754,483.442566 439.146149,506.647827 419.951752,529.225281 
	C405.681458,546.010742 390.497833,562.120667 374.673889,577.450562 
	C363.119537,588.644165 350.226562,598.571167 337.276367,608.181641 
	C318.017029,622.474121 296.953094,633.697815 274.478668,642.212830 
	C252.767929,650.438538 230.430359,655.799072 207.144409,655.876831 
	C195.427856,655.915894 183.712250,654.500549 171.984009,654.131775 
	C169.454208,654.052185 166.871841,655.643982 164.313675,656.465881 
	C165.207077,659.133179 165.970428,661.855225 167.059662,664.440002 
	C167.479446,665.436157 168.542709,666.256042 169.477859,666.925781 
	C181.275452,675.374939 193.466278,683.013489 207.178238,688.208740 
	C225.720688,695.234192 244.789474,697.936768 265.477600,697.000061 
M467.020386,436.475891 
	C481.392517,423.747620 496.512543,412.100830 514.261169,404.359253 
	C531.699097,396.753174 549.565613,392.047607 568.937744,394.891693 
	C589.865906,397.964172 607.398254,406.706970 620.829834,423.308167 
	C633.371460,438.809296 634.669373,456.989502 632.518433,475.521362 
	C630.805847,490.277130 622.199890,501.749939 611.087952,511.191772 
	C608.571594,513.329895 608.794983,514.966919 609.800659,517.525452 
	C611.473022,521.780029 615.080444,521.722900 618.124512,520.735901 
	C624.784607,518.576355 631.659912,516.450195 637.637146,512.933350 
	C655.389038,502.488617 665.884949,486.447937 669.877869,466.464783 
	C672.589783,452.892700 673.734741,439.191925 672.226685,425.160034 
	C670.725403,411.190338 667.484924,397.930023 661.118103,385.534485 
	C648.307434,360.593384 628.347412,342.915955 603.818909,329.912720 
	C576.786743,315.582153 547.669922,309.201599 517.455872,308.253479 
	C503.345673,307.810699 488.856049,308.606995 475.053436,311.393188 
	C442.799316,317.904114 413.141907,331.425720 385.460236,349.106323 
	C359.397919,365.752563 336.232574,385.843109 316.734772,409.886993 
	C303.158356,426.628815 289.645386,443.481293 277.168945,461.040955 
	C261.452148,483.161072 247.293030,506.388519 231.559555,528.496094 
	C220.499054,544.037598 208.829178,559.353210 195.765472,573.197815 
	C184.630188,584.998779 171.308105,594.793091 158.588028,605.020691 
	C150.747269,611.325073 151.000259,619.777222 159.937881,624.426819 
	C161.827255,625.409790 163.815125,626.337952 165.867599,626.852234 
	C188.512314,632.526184 211.441055,632.644043 234.236755,628.687988 
	C258.067078,624.552185 280.388519,615.864258 301.497437,603.905945 
	C324.041412,591.134705 344.115051,575.157959 362.850067,557.470154 
	C370.535339,550.214478 377.495758,542.137634 384.339355,534.056152 
	C395.308044,521.103455 406.348846,508.170410 416.555298,494.623413 
	C431.907806,474.245972 448.076721,454.650421 467.020386,436.475891 
M345.744293,745.143860 
	C355.752686,743.300171 365.796967,741.630432 375.761902,739.575989 
	C395.517639,735.502991 415.054352,729.608276 435.004944,727.435608 
	C458.889771,724.834473 483.033875,726.867065 505.840363,735.570068 
	C522.432007,741.901428 538.711975,749.114746 554.863708,756.517700 
	C576.192078,766.293091 598.466370,772.701599 621.796509,773.696594 
	C635.549866,774.283264 649.633850,773.028076 663.210938,770.599121 
	C691.085388,765.612366 716.855957,754.843445 739.782898,737.976379 
	C746.353333,733.142639 752.428162,727.586243 758.349426,721.960449 
	C759.531128,720.837708 759.818787,717.408997 758.971558,715.929932 
	C758.239990,714.653076 755.194580,713.912842 753.370605,714.199402 
	C748.039185,715.036987 742.854309,716.791809 737.526978,717.673950 
	C721.975403,720.248901 706.453308,723.558411 690.783447,724.684875 
	C678.342163,725.579285 665.565247,724.602905 653.182190,722.787354 
	C638.297241,720.604919 623.116821,718.192383 609.057922,713.123657 
	C585.257324,704.542603 562.206421,693.869202 538.895142,683.946716 
	C510.697876,671.944458 481.655609,665.871582 450.762695,668.812561 
	C430.342438,670.756653 411.241394,676.779175 392.264862,683.885803 
	C366.720459,693.452209 341.287598,703.378479 315.433075,712.033691 
	C297.468170,718.047729 278.699646,721.064026 259.595734,721.003174 
	C253.429672,720.983521 247.244568,720.727844 241.107864,721.152954 
	C239.031647,721.296814 235.795609,722.878601 235.408005,724.395569 
	C234.970734,726.106995 236.650284,729.093445 238.297012,730.438354 
	C241.061203,732.695862 244.391495,734.423523 247.721466,735.797791 
	C266.483429,743.540771 286.225616,747.245361 306.355621,747.781006 
	C319.187469,748.122498 332.075348,746.359375 345.744293,745.143860 
z"/>
<path fill="#78A2D2" opacity="1.000000" stroke="none" 
	d="
M264.981079,697.000000 
	C244.789474,697.936768 225.720688,695.234192 207.178238,688.208740 
	C193.466278,683.013489 181.275452,675.374939 169.477859,666.925781 
	C168.542709,666.256042 167.479446,665.436157 167.059662,664.440002 
	C165.970428,661.855225 165.207077,659.133179 164.313690,656.465942 
	C166.871841,655.643982 169.454208,654.052185 171.984009,654.131775 
	C183.712250,654.500549 195.427856,655.915894 207.144409,655.876831 
	C230.430359,655.799072 252.767929,650.438538 274.478668,642.212830 
	C296.953094,633.697815 318.017029,622.474121 337.276367,608.181641 
	C350.226562,598.571167 363.119537,588.644165 374.673889,577.450562 
	C390.497833,562.120667 405.681458,546.010742 419.951752,529.225281 
	C439.146149,506.647827 457.641754,483.442566 479.420227,463.276215 
	C495.762970,448.143127 513.033264,433.935822 534.287598,425.994904 
	C550.879639,419.795898 567.668396,418.123749 583.818481,427.521545 
	C586.934387,429.334717 589.931274,432.050049 591.842468,435.070892 
	C594.649231,439.507172 592.671204,443.075928 587.640503,445.008728 
	C580.296875,447.830231 572.524231,449.999573 565.834534,453.965240 
	C550.096863,463.294495 541.428162,477.999817 537.026611,495.476562 
	C529.842224,524.002502 536.668396,549.156128 555.077209,571.613281 
	C571.919678,592.159485 593.122986,606.471436 617.750183,616.077209 
	C635.208069,622.886536 653.292236,626.276917 671.895874,628.215881 
	C687.920959,629.886047 703.492615,627.955261 719.121643,625.415039 
	C743.359314,621.475769 765.849304,612.220520 788.152954,602.417297 
	C808.516052,593.467224 829.474792,586.290161 851.411194,582.354492 
	C876.018494,577.939514 900.001709,579.768616 922.705688,591.000793 
	C927.831421,593.536682 932.573059,596.905151 937.299377,600.168762 
	C939.730713,601.847656 941.911377,603.898071 940.191223,607.604858 
	C938.443542,611.371155 935.654541,611.189880 932.304504,610.694885 
	C923.210815,609.351135 914.093750,607.273010 904.972168,607.199402 
	C886.786133,607.052734 870.279175,613.449463 854.381287,621.996094 
	C827.861267,636.252991 805.284119,656.224182 780.142761,672.458618 
	C759.435730,685.829590 737.136719,695.399902 712.683960,698.857361 
	C698.992615,700.793152 685.000427,702.311646 671.245544,701.706726 
	C647.825134,700.676575 625.045471,695.310974 603.382629,686.067688 
	C581.884277,676.894592 560.697327,666.972107 539.054199,658.163757 
	C521.671631,651.089294 503.631470,645.957275 484.672363,644.976746 
	C480.722504,644.772522 476.790710,644.164001 472.840729,644.027161 
	C447.129700,643.136658 422.258148,647.782593 398.219513,656.509277 
	C379.220856,663.406311 360.522827,671.142029 341.762329,678.682007 
	C322.968628,686.235413 303.840332,692.659241 283.786224,695.825256 
	C277.771423,696.774902 271.585266,696.638794 264.981079,697.000000 
z"/>
<path fill="#78A2D2" opacity="1.000000" stroke="none" 
	d="
M466.769135,436.730530 
	C448.076721,454.650421 431.907806,474.245972 416.555298,494.623413 
	C406.348846,508.170410 395.308044,521.103455 384.339355,534.056152 
	C377.495758,542.137634 370.535339,550.214478 362.850067,557.470154 
	C344.115051,575.157959 324.041412,591.134705 301.497437,603.905945 
	C280.388519,615.864258 258.067078,624.552185 234.236755,628.687988 
	C211.441055,632.644043 188.512314,632.526184 165.867599,626.852234 
	C163.815125,626.337952 161.827255,625.409790 159.937881,624.426819 
	C151.000259,619.777222 150.747269,611.325073 158.588028,605.020691 
	C171.308105,594.793091 184.630188,584.998779 195.765472,573.197815 
	C208.829178,559.353210 220.499054,544.037598 231.559555,528.496094 
	C247.293030,506.388519 261.452148,483.161072 277.168945,461.040955 
	C289.645386,443.481293 303.158356,426.628815 316.734772,409.886993 
	C336.232574,385.843109 359.397919,365.752563 385.460236,349.106323 
	C413.141907,331.425720 442.799316,317.904114 475.053436,311.393188 
	C488.856049,308.606995 503.345673,307.810699 517.455872,308.253479 
	C547.669922,309.201599 576.786743,315.582153 603.818909,329.912720 
	C628.347412,342.915955 648.307434,360.593384 661.118103,385.534485 
	C667.484924,397.930023 670.725403,411.190338 672.226685,425.160034 
	C673.734741,439.191925 672.589783,452.892700 669.877869,466.464783 
	C665.884949,486.447937 655.389038,502.488617 637.637146,512.933350 
	C631.659912,516.450195 624.784607,518.576355 618.124512,520.735901 
	C615.080444,521.722900 611.473022,521.780029 609.800659,517.525452 
	C608.794983,514.966919 608.571594,513.329895 611.087952,511.191772 
	C622.199890,501.749939 630.805847,490.277130 632.518433,475.521362 
	C634.669373,456.989502 633.371460,438.809296 620.829834,423.308167 
	C607.398254,406.706970 589.865906,397.964172 568.937744,394.891693 
	C549.565613,392.047607 531.699097,396.753174 514.261169,404.359253 
	C496.512543,412.100830 481.392517,423.747620 466.769135,436.730530 
z"/>
<path fill="#78A2D2" opacity="1.000000" stroke="none" 
	d="
M345.341187,745.341919 
	C332.075348,746.359375 319.187469,748.122498 306.355621,747.781006 
	C286.225616,747.245361 266.483429,743.540771 247.721466,735.797791 
	C244.391495,734.423523 241.061203,732.695862 238.297012,730.438354 
	C236.650284,729.093445 234.970734,726.106995 235.408005,724.395569 
	C235.795609,722.878601 239.031647,721.296814 241.107864,721.152954 
	C247.244568,720.727844 253.429672,720.983521 259.595734,721.003174 
	C278.699646,721.064026 297.468170,718.047729 315.433075,712.033691 
	C341.287598,703.378479 366.720459,693.452209 392.264862,683.885803 
	C411.241394,676.779175 430.342438,670.756653 450.762695,668.812561 
	C481.655609,665.871582 510.697876,671.944458 538.895142,683.946716 
	C562.206421,693.869202 585.257324,704.542603 609.057922,713.123657 
	C623.116821,718.192383 638.297241,720.604919 653.182190,722.787354 
	C665.565247,724.602905 678.342163,725.579285 690.783447,724.684875 
	C706.453308,723.558411 721.975403,720.248901 737.526978,717.673950 
	C742.854309,716.791809 748.039185,715.036987 753.370605,714.199402 
	C755.194580,713.912842 758.239990,714.653076 758.971558,715.929932 
	C759.818787,717.408997 759.531128,720.837708 758.349426,721.960449 
	C752.428162,727.586243 746.353333,733.142639 739.782898,737.976379 
	C716.855957,754.843445 691.085388,765.612366 663.210938,770.599121 
	C649.633850,773.028076 635.549866,774.283264 621.796509,773.696594 
	C598.466370,772.701599 576.192078,766.293091 554.863708,756.517700 
	C538.711975,749.114746 522.432007,741.901428 505.840363,735.570068 
	C483.033875,726.867065 458.889771,724.834473 435.004944,727.435608 
	C415.054352,729.608276 395.517639,735.502991 375.761902,739.575989 
	C365.796967,741.630432 355.752686,743.300171 345.341187,745.341919 
z"/>
</svg>